<?xml version="1.0" encoding="UTF-8" standalone="no"?>
<svg xmlns="http://www.w3.org/2000/svg" width="64" height="64" viewBox="0 0 64 64">
  <!-- 砖墙 -->
  <g id="brick">
    <rect x="0" y="0" width="16" height="16" fill="#8B4513"/>
    <rect x="1" y="1" width="6" height="6" fill="#A0522D"/>
    <rect x="9" y="1" width="6" height="6" fill="#A0522D"/>
    <rect x="1" y="9" width="6" height="6" fill="#A0522D"/>
    <rect x="9" y="9" width="6" height="6" fill="#A0522D"/>
  </g>
  
  <!-- 钢墙 -->
  <g id="steel" transform="translate(16, 0)">
    <rect x="0" y="0" width="16" height="16" fill="#708090"/>
    <rect x="2" y="2" width="12" height="12" fill="#778899"/>
    <rect x="4" y="4" width="8" height="8" fill="#808080"/>
  </g>
  
  <!-- 水面 -->
  <g id="water" transform="translate(32, 0)">
    <rect x="0" y="0" width="16" height="16" fill="#4169E1"/>
    <path d="M4,4 Q8,0 12,4 T20,4" stroke="#87CEEB" fill="none" stroke-width="1"/>
    <path d="M0,8 Q4,4 8,8 T16,8" stroke="#87CEEB" fill="none" stroke-width="1"/>
    <path d="M4,12 Q8,8 12,12 T20,12" stroke="#87CEEB" fill="none" stroke-width="1"/>
  </g>
  
  <!-- 空地 -->
  <g id="empty" transform="translate(48, 0)">
    <rect x="0" y="0" width="16" height="16" fill="#90EE90"/>
    <circle cx="4" cy="4" r="1" fill="#228B22"/>
    <circle cx="12" cy="8" r="1" fill="#228B22"/>
    <circle cx="8" cy="12" r="1" fill="#228B22"/>
  </g>
</svg>